<!--?xml version="1.0" standalone="no"?-->
              <svg id="sw-js-blob-svg" viewBox="0 0 100 100" xmlns="http://www.w3.org/2000/svg" version="1.1">
                    <defs> 
                        <linearGradient id="sw-gradient" x1="0" x2="1" y1="1" y2="0">
                            <stop id="stop1" stop-color="rgba(192.317, 142.028, 31.555, 1)" offset="0%"></stop>
                            <stop id="stop2" stop-color="rgba(255, 194, 60, 1)" offset="100%"></stop>
                        </linearGradient>
                    </defs>
                <path fill="url(#sw-gradient)" d="M20.4,-33.7C24,-29.5,22.6,-19.6,23.9,-12.2C25.3,-4.9,29.2,-0.1,27.5,3.1C25.7,6.3,18.2,7.8,13.7,10.4C9.2,13.1,7.6,16.9,5,18.2C2.3,19.5,-1.4,18.4,-8,19.9C-14.7,21.3,-24.2,25.3,-27.5,23C-30.8,20.7,-27.8,12.1,-29.2,4.1C-30.5,-4,-36.1,-11.5,-33.9,-15.2C-31.8,-18.9,-21.9,-18.8,-14.9,-21.4C-8,-24.1,-4,-29.6,2.2,-33C8.4,-36.5,16.9,-37.9,20.4,-33.7Z" width="100%" height="100%" transform="translate(50 50)" stroke-width="0" style="transition: all 0.3s ease 0s;" stroke="url(#sw-gradient)"></path>
              </svg>